<svg xmlns="http://www.w3.org/2000/svg" viewBox="0 0 308.97 308.97"><defs><style>.cls-1{fill:#fff;}</style></defs><g id="Layer_2" data-name="Layer 2"><g id="Layer_1-2" data-name="Layer 1"><circle class="cls-1" cx="154.49" cy="154.49" r="154.49"/><path d="M243.47,110h37.21v-9.52H266.9c-1.46-7.91-5.95-15.07-13.42-21.34C245,72,233.94,68.4,220.56,68.4c-9.45,0-17.73,1.75-24.73,5.2V72.28H158.62v9.45H170C168.52,94,162.17,115.26,152.36,135c-12.62,25.45-26.87,40-39.09,40s-26.47-14.6-39.1-40C64.37,115.26,58,94,56.56,81.73H69.28V72.28H32.07v9.45H44v145.1H29.84v9.79H67.4v-9.79H52.81V116.4a225.11,225.11,0,0,0,10.08,24.06c10.54,21.49,27.84,47.09,50.38,47.09s39.83-25.6,50.37-47.09c2.7-5.5,5.16-11.14,7.34-16.7v71.35l-4.65-4.79L140.1,217.39l6.6,6.81,9.39-9.69A95.1,95.1,0,0,0,171,224.77v1H153.82v9.45H191v-1.1c10.4,3.9,21.08,6.44,30.09,6.44,19.2,0,34.79-5.28,46.33-15.68,11.73-10.57,17.68-23.58,17.68-38.67,0-9.85-2.36-18.57-7-25.92a44.7,44.7,0,0,0-15.77-14.83l.09-.25-1.83-.83,0-.08L257.6,143l-.08,0-.85-.33-2.35-.94,0,.08c-4.7-1.61-14.51-4.51-30.46-7.17A150.07,150.07,0,0,1,204,130.25a41.31,41.31,0,0,1-10.44-5.06,21.34,21.34,0,0,1-6.64-7.42,20.52,20.52,0,0,1-2.47-10c0-7.46,3.08-13.81,9.4-19.44s15.42-8.64,26.72-8.64c10.71,0,19.4,2.73,25.81,8.11,4.67,3.92,7.71,8.18,9.08,12.69h-12ZM171,211.61a70.61,70.61,0,0,1-7.09-5.15l7.09-7.31Zm16.35-77.11A52.58,52.58,0,0,0,200.55,141c4.63,1.53,11.85,3.13,21.45,4.76,20.71,3.47,30,7.13,31.19,7.63,6.88,3.18,12.12,7.55,15.58,13S274,178.55,274,186.22c0,11.74-4.69,21.93-13.95,30.27-9.45,8.51-22.55,12.83-38.94,12.83-10.53,0-25.07-4.66-37.65-10.75v-87.2A31.42,31.42,0,0,0,187.33,134.5Zm-3.86-51.71V81.73h1Z"/></g></g></svg>