<svg xmlns="http://www.w3.org/2000/svg" viewBox="0 0 277.97 184.91"><defs><style>.cls-1{fill:#eabe67;}</style></defs><g id="Layer_2" data-name="Layer 2"><g id="Layer_1-2" data-name="Layer 1"><rect class="cls-1" x="158.01" y="5.71" width="6.14" height="171.84"/><rect class="cls-1" x="15.86" y="5.71" width="2.01" height="171.84"/><rect class="cls-1" x="2.5" y="4.34" width="33.82" height="2.74"/><rect class="cls-1" x="144.18" y="4.34" width="33.82" height="2.74"/><rect class="cls-1" x="0.19" y="177.56" width="33.82" height="2.74"/><path class="cls-1" d="M34.2,180.49H0v-3.13H34.2ZM.38,180.11H33.82v-2.36H.38Z"/><rect class="cls-1" x="138.8" y="176.19" width="33.82" height="2.74"/><rect class="cls-1" x="239.17" y="35.87" width="33.82" height="2.83"/><polygon class="cls-1" points="150.83 140.2 126.91 164.88 124.97 162.87 148.89 138.2 150.83 140.2"/><path class="cls-1" d="M210.22,184.91c-23.82,0-60.58-17.47-74-31.78l3.32-3.3c12.51,13.36,48.29,30.32,70.66,30.32,19.35,0,34.9-5.17,46.22-15.37s16.92-22.49,16.92-36.8c0-9.33-2.18-17.52-6.48-24.32s-10.74-12.2-19.18-16.07c-1.2-.51-11.89-4.82-35.84-8.82-10.55-1.8-18.43-3.54-23.43-5.2a54.61,54.61,0,0,1-13.82-6.73,32.32,32.32,0,0,1-10.12-11.26,31.68,31.68,0,0,1-3.84-15.47c0-10.84,4.52-20.36,13.42-28.29S194.84,0,209.6,0h0c14,0,25.57,3.72,34.33,11.06s13.61,16,14.16,25.44l-4.6.29c-.47-8.07-4.67-15.48-12.47-22s-18.48-10-31.42-10h0C196,4.76,185,8.34,177.09,15.42s-11.83,15.16-11.83,24.69a27,27,0,0,0,3.24,13.13,27.67,27.67,0,0,0,8.66,9.64A49.55,49.55,0,0,0,189.83,69c4.79,1.59,12.45,3.28,22.77,5,24.53,4.1,35.67,8.62,36.86,9.12L249,84.28l.46-1.08h0l2.07.94v0a47.29,47.29,0,0,1,19.18,16.87c4.8,7.59,7.23,16.65,7.23,26.92,0,15.74-6.23,29.33-18.5,40.38S230.72,184.91,210.22,184.91Z"/><path class="cls-1" d="M89.48,125.56C47,125.56,15.57,30.76,15.57,5.71h6.14c0,26.24,32,113.7,67.77,113.7S157.24,32,157.24,5.71h6.15C163.39,30.76,131.94,125.56,89.48,125.56Z"/></g></g></svg>