<svg xmlns="http://www.w3.org/2000/svg" viewBox="0 0 336.09 336.09"><defs><style>.cls-1{fill:#e5e6ea;}</style></defs><g id="Layer_2" data-name="Layer 2"><g id="Layer_1-2" data-name="Layer 1"><path class="cls-1" d="M196,96.35c.34-.36.69-.71,1-1.06h-1Z"/><path class="cls-1" d="M183.54,225.17V212.71L176.45,220A72.22,72.22,0,0,0,183.54,225.17Z"/><path class="cls-1" d="M281.32,179.92c-3.45-5.47-8.69-9.85-15.57-13-1.22-.5-10.48-4.17-31.19-7.63a159.31,159.31,0,0,1-21.45-4.77,52.22,52.22,0,0,1-13.22-6.44,31.6,31.6,0,0,1-3.86-3.13v87.2c12.58,6.09,27.12,10.75,37.65,10.75,16.39,0,29.49-4.32,38.93-12.83,9.26-8.35,14-18.53,14-30.27C286.57,192.11,284.8,185.43,281.32,179.92Z"/><path class="cls-1" d="M168,0h0A168,168,0,0,0,0,168H0a168,168,0,0,0,168,168h0a168.05,168.05,0,0,0,168-168h0A168,168,0,0,0,168,0ZM280,238.45c-11.54,10.4-27.13,15.67-46.33,15.67-9,0-19.7-2.54-30.09-6.43v1.09H166.38v-9.45h17.16v-1a94.42,94.42,0,0,1-14.89-10.25l-9.39,9.69-6.6-6.82,26.23-27.07,4.65,4.8V137.32c-2.18,5.56-4.64,11.2-7.34,16.7-10.54,21.48-27.84,47.09-50.37,47.09S86,175.5,75.45,154A228.17,228.17,0,0,1,65.36,130V240.39H80v9.79H42.4v-9.79H56.57V95.29H44.63V85.84H81.84v9.45H69.11c1.46,12.24,7.81,33.53,17.62,53.29,12.62,25.45,26.87,40,39.1,40s26.47-14.59,39.09-40c9.81-19.76,16.16-41.05,17.62-53.29H171.18V85.84h37.21v1.32c7-3.45,15.27-5.2,24.73-5.2,13.38,0,24.45,3.6,32.92,10.7,7.47,6.28,12,13.44,13.42,21.34h13.78v9.53H256V114h12c-1.37-4.51-4.41-8.76-9.08-12.68-6.42-5.38-15.1-8.11-25.81-8.11-11.3,0-20.29,2.91-26.73,8.64s-9.39,12-9.39,19.44a20.52,20.52,0,0,0,2.47,10,21.21,21.21,0,0,0,6.64,7.41,41.26,41.26,0,0,0,10.43,5.07,150.69,150.69,0,0,0,19.84,4.37c16,2.66,25.76,5.56,30.46,7.16l0-.08,2.35.94.85.34.08,0,3.06,1.28,0,.09,1.83.83-.09.24a44.72,44.72,0,0,1,15.77,14.84c4.64,7.35,7,16.07,7,25.92C297.69,214.87,291.74,227.88,280,238.45Z"/></g></g></svg>